<svg width="490" height="490" viewBox="0 0 490 490" fill="none" xmlns="http://www.w3.org/2000/svg">
<g opacity="0.3">
<path d="M134.183 255.432C117.413 257.686 118.107 230.743 135.069 234.242C146.696 236.066 145.713 254.748 134.183 255.432Z" fill="#FEFDFE"/>
<path d="M121.933 284.419C119.037 271.246 139.456 265.825 143.168 279.35C146.784 293.374 125.065 298.487 121.933 284.419Z" fill="#FEFDFE"/>
<path d="M114.755 252.485C129.602 254.037 126.82 276.78 111.885 274.043C98.7488 271.842 101.513 251.573 114.755 252.485Z" fill="#FEFDFE"/>
<path d="M155.085 310.74C141.29 316.503 134.06 293.269 149.162 290.471C161.684 286.972 167.388 306.82 155.085 310.74Z" fill="#FEFDFE"/>
<path d="M239.87 347.209C261.439 340.087 259.307 375.117 239.712 365.943C232.157 362.97 232.508 350.919 239.87 347.209Z" fill="#FEFDFE"/>
<path d="M359.422 234.251C370.066 236.628 370.47 253.327 359.159 255.134C342.381 258.256 342.389 231.216 359.422 234.251Z" fill="#FEFDFE"/>
<path d="M125.574 199.308C136.982 190.161 150.531 207.378 138.781 216.122C127.979 223.691 115.711 208.211 125.574 199.308Z" fill="#FEFDFE"/>
<path d="M111.332 215.718C124.758 212.307 130.164 233.234 116.527 236.303C103.022 239.917 97.9064 219.183 111.332 215.718Z" fill="#FEFDFE"/>
<path d="M235.913 371.793C241.512 385.441 219.179 392.536 215.625 377.67C213.282 365.066 231.824 359.751 235.913 371.793Z" fill="#FEFDFE"/>
<path d="M149.198 199.238C135.956 196.239 139.659 175.978 152.892 178.346C166.809 179.96 163.273 201.773 149.198 199.238Z" fill="#FEFDFE"/>
<path d="M217.651 353.638C221.706 366.917 200.812 373.407 197.276 359.672C193.143 347.034 213.413 340.578 217.651 353.638Z" fill="#FEFDFE"/>
<path d="M281.394 367.522C271.022 366.627 267.933 352.173 277.524 347.262C293.986 340.684 299.137 367.522 281.394 367.522Z" fill="#FEFDFE"/>
<path d="M344.566 197.335C332.491 205.457 320.618 187.231 332.956 179.548C344.311 173.18 355.14 189.073 344.566 197.335Z" fill="#FEFDFE"/>
<path d="M147.775 253.371C160.28 249.486 167.66 266.781 155.945 273.088C142.563 278.71 134.2 259.028 147.775 253.371Z" fill="#FEFDFE"/>
<path d="M164.922 310.328C178.111 302.487 187.877 325.922 172.758 329.562C161.596 333.57 153.821 315.897 164.922 310.328Z" fill="#FEFDFE"/>
<path d="M297.408 328.097C309.536 324.001 317.345 341.736 305.508 347.805C292.205 353.462 283.684 333.64 297.408 328.097Z" fill="#FEFDFE"/>
<path d="M352.349 197.765C365.257 192.143 374.147 211.289 361.054 217.183C348.672 222.112 340.301 204.316 352.349 197.765Z" fill="#FEFDFE"/>
<path d="M346.909 284.709C343.276 271.781 363.16 266.133 367.232 279.201C370.803 292.611 350.155 298.374 346.909 284.709Z" fill="#FEFDFE"/>
<path d="M178.488 341.131C174.811 325.308 199.715 322.756 199.11 338.543C199.189 350.515 181.638 352.155 178.488 341.131Z" fill="#FEFDFE"/>
<path d="M249.005 142.456C232.429 148.201 228.278 121.029 246.39 122.187C256.587 123.547 258.535 138.395 249.005 142.456Z" fill="#FEFDFE"/>
<path d="M329.824 316.573C333.298 333.746 306.622 334.228 309.228 317.204C311.527 306.784 326.858 306.285 329.824 316.573Z" fill="#FEFDFE"/>
<path d="M371.505 253.669C385.44 248.231 392.846 270.43 377.727 273.675C365.819 276.631 360.089 258.607 371.505 253.669Z" fill="#FEFDFE"/>
<path d="M147.706 216.297C161.658 211.105 168.064 233.452 153.059 236.566C140.66 238.46 135.842 220.331 147.706 216.297Z" fill="#FEFDFE"/>
<path d="M266.678 385.467C253.147 389.817 247.083 368.522 261.395 365.189C274.119 362.768 279.147 381.696 266.678 385.467Z" fill="#FEFDFE"/>
<path d="M142.905 317.985C145.696 330.509 125.109 334.737 122.538 322.055C118.888 308.188 140.896 303.636 142.905 317.985Z" fill="#FEFDFE"/>
<path d="M348.085 297.329C353.043 311.915 329.999 317.125 327.77 301.881C326.199 290.067 344.558 285.717 348.085 297.329Z" fill="#FEFDFE"/>
<path d="M159.367 345.043C151.11 354.27 136.473 344.034 142.019 333.22C149.846 320.187 168.564 333.062 159.367 345.043Z" fill="#FEFDFE"/>
<path d="M322.022 159.814C336.221 163.76 329.499 184.696 315.818 179.793C303.972 175.11 309.535 156.998 322.022 159.814Z" fill="#FEFDFE"/>
<path d="M366.047 222.332C370.988 209.114 391.021 217.771 385.186 230.559C379.526 242.566 360.861 234.348 366.047 222.332Z" fill="#FEFDFE"/>
<path d="M253.577 334.781C258.807 321.134 278.866 329.782 272.917 342.719C266.924 354.349 249.689 346.797 253.577 334.781Z" fill="#FEFDFE"/>
<path d="M335.018 216.262C347.672 211.999 354.552 231.076 341.749 236.014C328.928 240.145 321.821 220.814 335.018 216.262Z" fill="#FEFDFE"/>
<path d="M171.854 180.399C161.745 182.021 155.453 169.102 162.947 162.27C172.179 154.28 185.122 165.91 178.839 175.873C176.97 178.136 174.618 179.715 171.845 180.39L171.854 180.399Z" fill="#FEFDFE"/>
<path d="M224.575 327.808C235.939 326.264 241.177 342.148 230.735 347.516C216.247 353.629 209.271 331.097 224.575 327.808Z" fill="#FEFDFE"/>
<path d="M335.29 328.379C347.216 324.064 354.262 342.833 342.372 347.788C329.323 352.981 321.566 332.641 335.29 328.379Z" fill="#FEFDFE"/>
<path d="M328.358 266.615C324.348 253.274 345.11 247.53 348.392 260.94C351.638 273.324 332.43 279.139 328.358 266.615Z" fill="#FEFDFE"/>
<path d="M91.7814 254.546C79.6365 250.073 85.2175 231.576 97.88 234.83C111.517 238.505 104.926 259.028 91.7814 254.546Z" fill="#FEFDFE"/>
<path d="M329.244 353.542C333.737 365.68 315.485 372.793 310.115 361.137C304.507 348.27 324.857 340.105 329.244 353.542Z" fill="#FEFDFE"/>
<path d="M120.107 309.214C108.366 317.003 96.7481 299.654 108.586 291.927C119.677 285.481 130.392 301.11 120.107 309.214Z" fill="#FEFDFE"/>
<path d="M282.859 143.018C266.95 143.053 269.661 119.162 285.202 122.74C295.881 126.047 293.995 142.299 282.859 143.018Z" fill="#FEFDFE"/>
<path d="M290.669 149.666C292.81 136.896 312.703 139.615 311.018 152.28C310.141 166.085 288.458 163.278 290.669 149.666Z" fill="#FEFDFE"/>
<path d="M253.577 153.192C250.655 142.378 267.371 136.431 272.452 146.324C279.911 159.937 256.279 168.576 253.577 153.192Z" fill="#FEFDFE"/>
<path d="M166.852 347.227C177.04 343.236 185.254 358.023 176.593 364.865C163.711 374.267 151.891 352.463 166.852 347.227Z" fill="#FEFDFE"/>
<path d="M228.103 141.281C240.862 144.027 237.316 163.603 224.584 161.322C211.14 159.419 214.615 139.062 228.103 141.281Z" fill="#FEFDFE"/>
<path d="M203.076 123.336C214.413 118.521 223.215 133.861 213.238 141.141C200.803 148.683 190.449 130.072 203.076 123.336Z" fill="#FEFDFE"/>
<path d="M190.712 141.281C203.462 144.017 199.934 163.594 187.193 161.322C173.714 159.401 177.277 139.053 190.712 141.281Z" fill="#FEFDFE"/>
<path d="M253.866 116.732C249.751 103.444 271.162 98.4715 273.61 112.382C275.628 124.722 256.622 128.704 253.866 116.732Z" fill="#FEFDFE"/>
<path d="M366.635 316.187C370.944 329.088 350.603 335.587 347.189 321.835C344.074 309.495 362.493 304.337 366.635 316.187Z" fill="#FEFDFE"/>
<path d="M160.499 285.262C156.191 273.711 174.487 266.387 179.225 278.087C184.929 290.401 164.72 298.654 160.499 285.262Z" fill="#FEFDFE"/>
<path d="M171.872 217.184C160.332 220.367 154.997 201.616 166.493 198.063C179.682 192.766 186.175 214.719 171.872 217.184Z" fill="#FEFDFE"/>
<path d="M216.476 110.829C220.802 98.629 239.142 104.216 235.904 116.609C231.972 129.747 212.536 123.678 216.476 110.829Z" fill="#FEFDFE"/>
<path d="M350.884 161.875C361.51 154.245 373.787 170.251 362.906 178.101C352.463 186.065 340.547 169.786 350.884 161.875Z" fill="#FEFDFE"/>
<path d="M198.215 372.196C202.672 384.818 183.034 391.308 179.102 378.345C175.417 366.224 193.994 360.11 198.215 372.196Z" fill="#FEFDFE"/>
<path d="M235.324 391.203C239.177 378.573 258.201 384.879 254.463 397.272C250.277 409.937 231.13 403.455 235.324 391.203Z" fill="#FEFDFE"/>
<path d="M328.358 149.368C331.122 136.983 349.611 139.965 348.348 152.639C346.312 165.857 326.313 163.024 328.358 149.368Z" fill="#FEFDFE"/>
<path d="M142.282 173.198C139.272 182.898 124.03 181.846 122.845 171.786C121.073 164.918 128.005 158.91 134.762 160.112C137.552 163.041 144.915 168.4 142.273 173.198H142.282Z" fill="#FEFDFE"/>
<path d="M297.882 385.177C285.658 381.213 291.371 362.522 303.516 365.803C316.345 369.837 310.782 388.615 297.882 385.177Z" fill="#FEFDFE"/>
<path d="M272.418 320.888C270.198 305.986 294.399 305.942 292.144 321.475C290.073 332.07 273.523 331.965 272.418 320.888Z" fill="#FEFDFE"/>
<path d="M322.022 217.183C309.816 219.893 304.42 202.238 316.459 197.791C329.508 194.16 335.115 213.376 322.022 217.183Z" fill="#FEFDFE"/>
<path d="M386.098 239.066C393.487 228.462 410.072 239.873 402.578 250.249C395.453 261.291 378.815 249.749 386.098 239.066Z" fill="#FEFDFE"/>
<path d="M329.244 279.227C332.675 291.322 314.59 297.304 310.106 285.595C306.166 273.07 324.585 266.352 329.244 279.227Z" fill="#FEFDFE"/>
<path d="M213.202 327.694C202.83 335.106 190.791 318.783 201.812 311.328C212.132 303.847 223.776 320.204 213.202 327.694Z" fill="#FEFDFE"/>
<path d="M116.755 198.361C100.723 201.72 99.6702 176.653 116.22 178.942C125.952 181.381 126.346 195.309 116.755 198.361Z" fill="#FEFDFE"/>
<path d="M154.155 161.007C137.728 164.55 137.386 138.185 154.102 141.86C163.334 144.027 163.491 158.191 154.155 161.007Z" fill="#FEFDFE"/>
<path d="M96.7919 272.202C107.173 273.842 108.059 289.48 97.3974 291.892C82.0324 294.286 81.4094 270.86 96.7919 272.202Z" fill="#FEFDFE"/>
<path d="M365.749 187.617C368.232 173.119 389.793 178.486 384.861 192.563C380.491 202.93 364.617 198.606 365.749 187.617Z" fill="#FEFDFE"/>
<path d="M366.346 303.531C362.09 291.269 382.378 285.437 385.169 298.47C388.793 310.661 368.926 315.582 366.346 303.531Z" fill="#FEFDFE"/>
<path d="M276.717 178.048C267.283 172.54 274.927 156.884 284.93 160.682C299.444 164.743 288.677 186.696 276.717 178.048Z" fill="#FEFDFE"/>
<path d="M179.094 303.259C176.084 291.252 194.476 286.007 198.179 297.909C201.532 310.793 182.867 315.792 179.094 303.259Z" fill="#FEFDFE"/>
<path d="M307.307 308.39C298.312 315.985 285.448 303.092 293.582 294.146C302.823 284.261 317.547 299.364 307.307 308.39Z" fill="#FEFDFE"/>
<path d="M198.513 190.266C197.126 199.51 183.165 201.659 179.664 192.38C174.338 176.856 199.829 173.689 198.513 190.266Z" fill="#FEFDFE"/>
<path d="M315.556 123.626C335.344 118.083 332.027 149.71 314.775 140.887C307.694 138.071 308.624 126.573 315.556 123.626Z" fill="#FEFDFE"/>
<path d="M216.774 166.795C220.345 178.241 204.111 185.056 198.53 174.391C193.143 162.12 211.412 154.086 216.774 166.795Z" fill="#FEFDFE"/>
<path d="M302.006 178.934C311.914 180.083 313.914 194.563 303.998 198.045C288.967 201.992 286.299 178.302 302.006 178.934Z" fill="#FEFDFE"/>
<path d="M201.33 401.965C194.994 396.878 197.477 386.318 205.454 384.608C224.47 382.818 217.336 412.042 201.33 401.965Z" fill="#FEFDFE"/>
<path d="M179.094 241.443C184.069 254.546 162.272 260.151 160.534 246.161C157.867 235.303 175.847 230.418 179.094 241.443Z" fill="#FEFDFE"/>
<path d="M253.866 316.477C258.377 328.142 239.291 334.544 235.632 322.458C231.788 310.618 249.996 304.434 253.866 316.477Z" fill="#FEFDFE"/>
<path d="M172.46 141.869C157.814 145.658 156.006 121.433 171.608 123.073C181.384 124.529 182.604 139.826 172.46 141.869Z" fill="#FEFDFE"/>
<path d="M329.244 246.161C327.682 257.414 309.86 256.669 310.106 244.986C309.325 231.637 330.754 232.313 329.244 246.161Z" fill="#FEFDFE"/>
<path d="M85.7532 205.264C86.3148 203.966 86.8852 202.308 87.8238 201.282C94.5806 192.827 108.252 201.264 104.26 210.894C100.179 221.533 83.5156 216.753 85.762 205.264H85.7532Z" fill="#FEFDFE"/>
<path d="M385.466 285.288C381.518 275.649 395.505 267.816 401.832 276.061C411.046 287.498 390.056 299.075 385.466 285.288Z" fill="#FEFDFE"/>
<path d="M285.185 403.42C272.039 407.183 267.433 386.519 281.087 384.888C291.959 382.818 296.048 399.851 285.185 403.42Z" fill="#FEFDFE"/>
<path d="M310.404 112.303C312.247 124.169 294.337 127.897 291.59 116.118C289.142 105.619 304.437 99.7781 309.527 109.733C309.614 110.303 310.044 111.592 310.404 112.303Z" fill="#FEFDFE"/>
<path d="M246.943 160.7C253.77 162.278 256.744 171.584 251.637 176.61C236.492 189.038 226.83 159.244 246.943 160.7Z" fill="#FEFDFE"/>
<path d="M391.302 198.352C402.824 194.826 409.036 211.666 397.945 216.086C386.458 221.059 379.14 202.957 391.302 198.352Z" fill="#FEFDFE"/>
<path d="M240.756 103.918C231.077 99.1117 235.79 84.1137 246.688 85.9994C260.29 89.6481 253.313 109.128 240.756 103.918Z" fill="#FEFDFE"/>
<path d="M185.447 105.093C196.275 101.462 203.427 117.197 192.906 122.302C181.287 128.117 173.495 109.891 185.447 105.093Z" fill="#FEFDFE"/>
<path d="M141.097 352.726C146.529 365.154 126.97 372.144 123.451 358.857C121.389 348.121 136.341 343.184 141.097 352.726Z" fill="#FEFDFE"/>
<path d="M105.479 334.132C111.227 322.818 128.435 332.255 121.854 343.069C115.395 352.884 100.907 344.499 105.479 334.132Z" fill="#FEFDFE"/>
<path d="M350.875 349.866C361.168 341.254 373.26 359.234 360.914 365.092C351.814 369.916 343.03 356.752 350.875 349.866Z" fill="#FEFDFE"/>
<path d="M337.045 366.645C347.128 364.443 351.665 380.397 341.714 384.002C329.2 388.843 323.698 368.381 337.045 366.645Z" fill="#FEFDFE"/>
<path d="M67.7901 265.58C64.5785 253.985 83.0149 249.854 85.4544 261.387C88.4819 272.561 70.0629 277.262 67.7901 265.58Z" fill="#FEFDFE"/>
<path d="M149.785 384.59C137.833 382.055 141.405 364.285 153.4 366.636C164.501 369.32 161.166 386.195 149.785 384.59Z" fill="#FEFDFE"/>
<path d="M280.218 104.207C274.479 102.795 271.267 95.8314 274.47 90.6479C287.431 74.7466 301.322 105.163 280.218 104.207Z" fill="#FEFDFE"/>
<path d="M69.2646 231.462C62.657 222.068 76.2233 211.403 83.8225 220.709C90.5528 230.287 76.4339 240.697 69.2646 231.462Z" fill="#FEFDFE"/>
<path d="M225.163 421.953C215.519 420.883 214.308 406.21 223.969 404.306C237.536 401.175 238.949 422.786 225.163 421.953Z" fill="#FEFDFE"/>
<path d="M372.076 329.869C382.702 325.326 390.108 342.026 379.21 346.358C368.785 351.305 361.361 334.535 372.076 329.869Z" fill="#FEFDFE"/>
<path d="M96.7832 328.396C75.4596 328.08 91.6497 298.312 103.408 315.863C105.822 320.844 102.39 327.203 96.7832 328.396Z" fill="#FEFDFE"/>
<path d="M199.4 91.6299C204.13 80.7455 220.592 88.7531 215.476 99.1727C210.597 109.654 194.188 101.822 199.4 91.6299Z" fill="#FEFDFE"/>
<path d="M261.667 421.655C252.962 419.594 252.313 406.736 261.211 404.307C275.093 401.518 276.225 423.436 261.667 421.655Z" fill="#FEFDFE"/>
<path d="M186.166 271.904C174.601 267.737 180.998 251.468 191.8 255.134C202.251 259.695 196.732 274.807 186.166 271.904Z" fill="#FEFDFE"/>
<path d="M271.83 298.233C275.471 308.346 259.325 314.547 255.341 303.987C250.998 293.102 268.372 286.735 271.83 298.233Z" fill="#FEFDFE"/>
<path d="M359.905 140.983C348.058 144.728 343.451 126.029 355.894 123.942C366.012 122.731 369.584 137.405 359.905 140.983Z" fill="#FEFDFE"/>
<path d="M178.787 395.325C177.102 407.131 158.376 403.684 161.693 392.071C163.957 381.45 180.331 385.125 178.787 395.325Z" fill="#FEFDFE"/>
<path d="M404.351 264.729C403.737 246.1 432.133 258.098 418.163 270.57C413.056 274.359 405.404 271.026 404.351 264.729Z" fill="#FEFDFE"/>
<path d="M295.96 256.178C306.069 249.784 315.388 265.238 304.99 271.281C295.46 275.973 287.106 262.484 295.96 256.178Z" fill="#FEFDFE"/>
<path d="M234.14 297.049C235.114 299.768 234.886 303.11 233.596 305.6C229.278 311.696 219.424 310.31 217.651 302.996C214.957 293.251 229.489 287.664 234.14 297.049Z" fill="#FEFDFE"/>
<path d="M370.786 144.044C381.956 137.256 390.582 155.481 378.166 159.823C368.925 162.401 362.625 149.719 370.786 144.044Z" fill="#FEFDFE"/>
<path d="M180.278 227.647C178.98 207.798 209.201 221.367 192.835 233.944C187.956 236.277 180.814 233.593 180.278 227.647Z" fill="#FEFDFE"/>
<path d="M328.069 395.334C327.033 406.868 308.842 403.982 310.992 392.545C313.081 381.731 330.166 384.722 328.069 395.334Z" fill="#FEFDFE"/>
<path d="M404.614 223.805C405.544 221.419 407.053 219.104 409.756 218.069C417.013 214.622 425.253 223.972 420.321 230.76C415.223 239.206 402.051 232.891 404.622 223.805H404.614Z" fill="#FEFDFE"/>
<path d="M307.746 220.569C314.951 229.83 300.103 240.776 293.671 230.883C287.59 222.147 300.805 212.228 307.746 220.569Z" fill="#FEFDFE"/>
<path d="M105.479 153.437C103.496 143.693 116.492 138.483 121.669 147.342C126.908 158.77 109.314 165.567 105.479 153.437Z" fill="#FEFDFE"/>
<path d="M397.085 327.545C387.195 331.457 381 315.407 391.039 311.626C401.534 306.934 408.124 324.23 397.085 327.545Z" fill="#FEFDFE"/>
<path d="M134.139 141.027C119.028 143.027 122.591 118.907 136.499 125.055C143.686 128.152 141.975 140.36 134.139 141.027Z" fill="#FEFDFE"/>
<path d="M272.127 187.626C273.338 196.773 260.132 200.957 255.937 192.783C250.383 180.653 269.495 174.531 272.127 187.626Z" fill="#FEFDFE"/>
<path d="M223.689 180.705C231.964 177.425 238.817 189.73 231.56 195.203C221.337 203.886 210.789 184.398 223.689 180.705Z" fill="#FEFDFE"/>
<path d="M341.759 121.863C330.14 126.81 324.542 106.997 337.301 105.725C346.462 103.725 350.639 118.013 341.759 121.863Z" fill="#FEFDFE"/>
<path d="M402.56 168.786C404.965 181.161 383.904 181.354 386.072 168.409C387.529 159.559 401.762 159.471 402.56 168.786Z" fill="#FEFDFE"/>
<path d="M92.9484 161.875C102.619 159.209 108.007 173.356 98.8278 177.759C87.9466 182.302 81.7426 165.234 92.9484 161.875Z" fill="#FEFDFE"/>
<path d="M290.134 280.043C293.328 292.769 272.408 293.848 273.891 280.876C275.084 272.483 288.475 271.281 290.134 280.043Z" fill="#FEFDFE"/>
<path d="M206.025 290.445C194.477 287.893 199.119 270.772 210.395 274.254C219.39 277.78 215.757 291.866 206.025 290.445Z" fill="#FEFDFE"/>
<path d="M144.344 109.356C149.627 101.374 162.737 107.988 159.06 116.741C154.725 128.248 138.123 119.679 144.344 109.356Z" fill="#FEFDFE"/>
<path d="M74.2663 292.778C83.059 290.313 89.0611 302.759 80.953 307.741C70.6071 314.275 62.4989 296.541 74.2663 292.778Z" fill="#FEFDFE"/>
<path d="M259.886 69.2035C270.363 64.5726 276.638 81.0703 265.871 84.4821C256.525 87.2537 251.155 73.6766 259.886 69.2035Z" fill="#FEFDFE"/>
<path d="M290.081 205.079C293.679 218.139 271.004 218.814 274.488 205.246C275.927 197.554 287.896 197.282 290.081 205.079Z" fill="#FEFDFE"/>
<path d="M191.3 420.497C181.849 424.093 176.207 409.911 185.157 405.482C195.608 401 201.935 417.068 191.3 420.497Z" fill="#FEFDFE"/>
<path d="M215.001 210.474C210.333 221.665 193.423 211.78 201.163 202.247C206.647 195.02 218.599 202.168 215.001 210.474Z" fill="#FEFDFE"/>
<path d="M327.182 92.8666C331.14 102.725 313.967 108.031 311.791 97.2168C309.018 87.455 324.725 83.0521 327.182 92.8666Z" fill="#FEFDFE"/>
<path d="M228.383 84.482C218.327 87.4289 213.527 71.1768 224.224 68.9052C234.21 65.9582 238.115 81.7104 228.383 84.482Z" fill="#FEFDFE"/>
<path d="M298.505 405.184C311.615 401.816 312.089 423.33 298.988 420.769C291.178 418.945 290.95 407.552 298.505 405.184Z" fill="#FEFDFE"/>
<path d="M83.9801 185.959C87.2883 194.037 75.3279 200.922 70.1067 193.309C63.4113 183.714 79.8032 175.04 83.9801 185.959Z" fill="#FEFDFE"/>
<path d="M171.573 87.4374C182.533 90.0423 177.707 106.61 167.107 102.655C158.428 99.3393 162.166 85.8236 171.573 87.4374Z" fill="#FEFDFE"/>
<path d="M415.074 308.389C404.71 311.661 401.069 293.935 412.108 293.093C421.295 291.12 424.726 306.46 415.074 308.389Z" fill="#FEFDFE"/>
<path d="M405.5 186.442C407.641 179.767 417.408 179.013 420.225 185.477C424.946 198.993 402.692 200.352 405.5 186.442Z" fill="#FEFDFE"/>
<path d="M57.339 252.485C46.414 251.441 49.3624 234.356 60.1646 237.487C68.694 239.908 66.0088 253.038 57.339 252.485Z" fill="#FEFDFE"/>
<path d="M252.102 433.864C249.882 440.924 239.396 440.609 237.395 433.557C235.035 420.857 255.191 421.602 252.102 433.864Z" fill="#FEFDFE"/>
<path d="M424.639 246.749C421.804 237.864 436.45 233.409 438.775 242.618C441.82 251.713 427.271 256.248 424.639 246.749Z" fill="#FEFDFE"/>
<path d="M307.754 79.0618C305.236 88.0167 290.783 83.3507 293.889 74.6677C296.022 64.8532 311.685 70.0718 307.754 79.0618Z" fill="#FEFDFE"/>
<path d="M121.081 374.144C123.345 385.765 104.031 385.423 106.813 373.688C108.358 366.338 120.178 366.452 121.081 374.144Z" fill="#FEFDFE"/>
<path d="M376.21 368.11C386.643 369.188 383.853 385.344 373.84 382.537C365.241 380.555 367.75 367.522 376.21 368.11Z" fill="#FEFDFE"/>
<path d="M213.536 435.636C208.025 443.38 196.574 435.46 201.198 427.663C206.612 419.805 218.573 427.514 213.536 435.636Z" fill="#FEFDFE"/>
<path d="M195.863 78.4563C193.371 87.0253 180.261 84.5081 181.463 75.4918C183.314 65.9843 197.828 68.6243 195.863 78.4563Z" fill="#FEFDFE"/>
<path d="M52.0042 286.586C45.8177 277.42 60.946 269.527 64.8509 279.823C67.2728 286.998 57.1464 293.041 52.0042 286.586Z" fill="#FEFDFE"/>
<path d="M88.4029 354.137C92.2289 345.682 104.935 350.533 102.215 359.067C98.9594 368.285 85.2351 363.294 88.4029 354.137Z" fill="#FEFDFE"/>
<path d="M136.93 400.079C134.148 401.807 130.63 401.886 128.129 399.877C122.513 395.553 126.47 386.318 133.288 386.949C139.65 387.712 142.239 396.132 136.93 400.079Z" fill="#FEFDFE"/>
<path d="M358.843 401.061C350.006 404.017 346.093 389.642 354.859 387.379C363.634 384.169 368.302 399 358.843 401.061Z" fill="#FEFDFE"/>
<path d="M285.211 438.136C276.524 441.811 270.864 428.558 279.569 424.962C288.142 421.857 293.082 434.18 285.211 438.136Z" fill="#FEFDFE"/>
<path d="M251.216 279.411C255.27 287.963 241.099 293.646 237.983 284.314C235.219 276.201 248.145 271.044 251.216 279.411Z" fill="#FEFDFE"/>
<path d="M387.274 357.699C386.414 350.103 396.944 346.832 400.753 353.489C405.316 363.303 389.108 368.662 387.274 357.699Z" fill="#FEFDFE"/>
<path d="M51.0035 207.921C49.6345 196.764 68.7907 199.361 64.2627 209.964C62.2444 216.77 50.942 215.183 51.0035 207.921Z" fill="#FEFDFE"/>
<path d="M284.93 251.31C276.822 254.371 271.294 242.882 278.963 238.365C287.519 234.532 293.565 247.39 284.93 251.31Z" fill="#FEFDFE"/>
<path d="M434.8 275.727C440.521 278.867 439.67 287.121 433.58 288.962C420.848 290.655 423.366 271.517 434.8 275.727Z" fill="#FEFDFE"/>
<path d="M205.243 238.075C216.3 235.084 217.388 253.336 205.831 251.573C199.066 249.994 198.794 240.25 205.243 238.075Z" fill="#FEFDFE"/>
<path d="M377.086 107.154C386.23 109.399 382.72 123.292 373.681 120.521C365.459 118.196 368.636 105.584 377.086 107.154Z" fill="#FEFDFE"/>
<path d="M438.775 207.921C438.038 214.622 429.052 216.595 425.525 210.631C421.295 200.071 438.38 196.089 438.775 207.921Z" fill="#FEFDFE"/>
<path d="M83.1025 336.78C85.5947 347.147 67.5706 347.586 69.8784 336.5C71.3614 329.948 82.0846 329.58 83.1025 336.78Z" fill="#FEFDFE"/>
<path d="M387.538 131.721C388.644 124.705 399.068 123.819 401.051 130.905C403.131 141.413 386.582 142.378 387.538 131.721Z" fill="#FEFDFE"/>
<path d="M336.756 419.593C327.919 417.049 331.658 403.946 340.301 406.367C348.163 408.875 345.355 421.128 336.756 419.593Z" fill="#FEFDFE"/>
<path d="M157.595 410.262C161.219 419.042 147.091 423.62 144.651 414.446C143.133 406.429 154.383 402.877 157.595 410.262Z" fill="#FEFDFE"/>
<path d="M242.836 64.4935C238.51 63.0113 236.781 57.8628 239.177 54.0213C250.207 42.9351 258.096 66.695 242.836 64.4935Z" fill="#FEFDFE"/>
<path d="M112.262 107.443C123.6 105.374 122.538 123.503 111.806 120.389C105.76 118.319 105.751 109.233 112.262 107.443Z" fill="#FEFDFE"/>
<path d="M238.265 205.702C240.617 197.598 252.63 200.335 251.515 208.509C249.962 217.095 236.334 214.859 238.265 205.702Z" fill="#FEFDFE"/>
<path d="M406.413 338.868C406.018 328.825 421.269 329.65 419.628 339.718C417.654 346.779 407.422 346.121 406.413 338.868Z" fill="#FEFDFE"/>
<path d="M357.974 88.9114C367.504 89.9989 363.546 104.786 354.692 101.541C347.383 99.3134 350.454 87.0081 357.974 88.9114Z" fill="#FEFDFE"/>
<path d="M96.8182 139.203C86.8764 141.054 85.9111 125.538 95.9056 125.977C103.128 126.924 103.917 137.159 96.8182 139.203Z" fill="#FEFDFE"/>
<path d="M406.974 149.184C409.73 140.93 422.462 146.079 419.128 153.7C416.214 161.445 404.07 156.884 406.974 149.184Z" fill="#FEFDFE"/>
<path d="M280.806 51.8372C288.589 49.5393 291.722 61.9235 284.009 64.1864C275.707 66.344 272.513 53.3896 280.806 51.8372Z" fill="#FEFDFE"/>
<path d="M136.359 100.568C134.788 101.681 132.787 101.638 131.076 101.559C125.179 100.147 124.644 91.4986 130.427 89.2094C137.236 86.8589 142.361 96.2699 136.359 100.568Z" fill="#FEFDFE"/>
<path d="M70.1417 150.543C70.7472 148.991 71.107 147.465 72.783 146.28C78.1007 142.071 85.7614 149.149 81.8828 154.709C78.4078 160.507 69.3344 157.051 70.1417 150.543Z" fill="#FEFDFE"/>
<path d="M208.385 51.5482C215.203 52.7936 215.484 62.3274 208.964 64.1956C199.197 65.9234 198.592 50.715 208.385 51.5482Z" fill="#FEFDFE"/>
<path d="M261.834 257.493C269.293 255.327 273.128 267.545 264.976 269.237C257.701 271.667 254.138 259.598 261.834 257.493Z" fill="#FEFDFE"/>
<path d="M171.275 425.48C179.673 427.585 175.75 440.355 168.019 437.25C160.929 435.119 163.974 424.12 171.275 425.48Z" fill="#FEFDFE"/>
<path d="M340.582 82.4387C332.14 85.5085 328.481 71.1596 337.862 70.686C344.408 69.5809 347.023 79.7724 340.582 82.4387Z" fill="#FEFDFE"/>
<path d="M59.4188 325.449C50.0031 327.247 49.3274 312.398 58.8572 313.442C65.1314 314.731 65.5438 323.686 59.4188 325.449Z" fill="#FEFDFE"/>
<path d="M224.567 257.783C231.341 255.494 235.071 265.738 228.744 268.948C221.32 272.307 216.152 260.019 224.567 257.783Z" fill="#FEFDFE"/>
<path d="M149.794 70.9486C157.779 68.2209 160.368 82.1488 151.856 82.4382C144.976 83.8503 142.809 72.194 149.794 70.9486Z" fill="#FEFDFE"/>
<path d="M322.926 436.679C315.617 441.223 309.29 428.891 317.617 426.058C323.874 423.4 328.656 432.689 322.926 436.679Z" fill="#FEFDFE"/>
<path d="M426.683 322.669C422.954 316.371 432.132 309.925 436.713 316.178C440.82 322.669 431.176 329.176 426.683 322.669Z" fill="#FEFDFE"/>
<path d="M220.301 449.169C221.565 443.591 229.822 442.722 231.753 448.686C233.613 457.896 219.108 458.492 220.301 449.169Z" fill="#FEFDFE"/>
<path d="M33.6377 261.458C39.3152 250.722 51.7056 265.606 40.2102 269.018C36.0332 270.211 32.3565 265.404 33.6377 261.458Z" fill="#FEFDFE"/>
<path d="M433.185 175.697C426.481 177.101 423.085 167.681 429.614 164.673C436.818 161.866 441.083 173.321 433.185 175.697Z" fill="#FEFDFE"/>
<path d="M58.8136 164.524C64.8772 165.147 65.1493 174.137 59.2875 175.671C50.1614 177.706 50.0912 162.586 58.8136 164.524Z" fill="#FEFDFE"/>
<path d="M260.167 221.305C266.344 217.385 272.82 226.085 266.941 230.76C260.965 235.154 254.007 225.787 260.167 221.305Z" fill="#FEFDFE"/>
<path d="M220.302 226.743C219.608 219.797 230.077 218.016 231.753 224.629C233.245 232.654 221.6 234.426 220.302 226.743Z" fill="#FEFDFE"/>
<path d="M265.449 455.781C259.482 457.711 254.753 449.458 260.132 445.599C267.169 440.801 273.391 452.44 265.449 455.781Z" fill="#FEFDFE"/>
<path d="M39.6752 220.42C45.6071 221.226 46.6426 229.716 40.5088 231.602C32.111 233.111 31.2686 220.148 39.6752 220.42Z" fill="#FEFDFE"/>
<path d="M449.788 257.809C458.616 256.994 457.247 271.369 448.884 268.676C442.978 267.492 444.207 258.432 449.788 257.809Z" fill="#FEFDFE"/>
<path d="M445.251 224.384C446.813 217.762 457.712 220.603 455.852 227.067C455.035 234.68 442.417 231.637 445.251 224.384Z" fill="#FEFDFE"/>
<path d="M320.548 63.3099C314.45 64.2659 311.633 55.2671 317.67 53.0043C324.848 50.373 327.911 61.5996 320.548 63.3099Z" fill="#FEFDFE"/>
<path d="M164.659 56.9861C166.352 49.6801 177.663 52.5832 174.943 60.0207C172.512 65.7919 163.728 63.0905 164.659 56.9861Z" fill="#FEFDFE"/>
<path d="M190.019 445.196C197.6 447.529 192.265 458.905 185.886 454.528C181.033 451.502 184.508 444.012 190.019 445.196Z" fill="#FEFDFE"/>
<path d="M99.8544 396.536C97.3448 401.43 89.3243 399.132 90.1667 393.334C91.7375 386.248 102.645 389.344 99.8544 396.536Z" fill="#FEFDFE"/>
<path d="M267.635 42.3566C263.107 47.9085 254.841 40.3832 260.255 35.305C264.862 31.6651 271.04 37.5766 267.635 42.3566Z" fill="#FEFDFE"/>
<path d="M396.813 398.701C390.477 401.762 386.072 391.702 393.022 389.554C398.594 387.554 401.762 395.676 396.813 398.701Z" fill="#FEFDFE"/>
<path d="M227.813 34.4798C234.122 37.0584 230.209 46.1361 223.961 43.9171C218.538 40.9877 221.96 32.6906 227.813 34.4798Z" fill="#FEFDFE"/>
<path d="M305.701 448.616C307.429 454.317 299.304 457.913 296.311 452.449C293.819 446.196 303.051 442.214 305.701 448.616Z" fill="#FEFDFE"/>
<path d="M42.0707 304.82C36.7267 308.434 30.9966 300.593 36.5249 296.62C41.7197 293.62 46.9234 300.97 42.0707 304.82Z" fill="#FEFDFE"/>
<path d="M447.648 296.725C454.51 292.769 458.827 304.206 451.061 305.741C446.007 306.294 443.637 299.707 447.648 296.725Z" fill="#FEFDFE"/>
<path d="M71.915 373.846C74.0825 367.996 83.349 371.241 81.0499 377.082C79.4529 383.309 69.5107 379.792 71.915 373.846Z" fill="#FEFDFE"/>
<path d="M117.931 415.832C114.535 420.48 106.725 415.919 109.595 410.911C112.219 404.517 121.915 410.096 117.931 415.832Z" fill="#FEFDFE"/>
<path d="M380.473 414.147C378.955 420.304 369.004 417.752 371.058 411.77C372.225 405.517 381.948 407.964 380.473 414.147Z" fill="#FEFDFE"/>
<path d="M446.427 191.388C443.803 186.836 449.13 181.802 453.324 184.819C459.019 189.213 451.016 197.317 446.427 191.388Z" fill="#FEFDFE"/>
<path d="M411.608 380.178C405.395 377.784 409.142 368.706 415.082 371.066C420.26 373.899 417.469 381.45 411.608 380.178Z" fill="#FEFDFE"/>
<path d="M37.9905 193.353C31.7426 191.406 34.8841 182.258 40.781 184.24C46.1952 186.398 43.7294 194.467 37.9905 193.353Z" fill="#FEFDFE"/>
<path d="M398.445 92.8839C400.735 97.0939 395.883 101.874 391.635 99.0147C386.221 94.4802 394.189 86.9198 398.445 92.8839Z" fill="#FEFDFE"/>
<path d="M417.567 112.934C418.602 118.372 410.819 120.556 408.765 115.557C407.317 109.592 415.54 107.058 417.567 112.934Z" fill="#FEFDFE"/>
<path d="M371.347 75.5274C373.006 69.8177 381.772 72.4138 379.885 78.106C378.016 83.2193 370.207 80.9039 371.347 75.5274Z" fill="#FEFDFE"/>
<path d="M187.254 35.0763C188.544 34.8658 189.185 34.6904 190.571 35.2341C197.311 38.3127 189.194 48.1446 184.973 41.435C183.464 39.1547 184.745 36.0323 187.263 35.0763H187.254Z" fill="#FEFDFE"/>
<path d="M135.13 427.9C138.86 430.505 136.534 436.828 131.927 435.881C125.346 435.1 128.804 424.172 135.13 427.9Z" fill="#FEFDFE"/>
<path d="M361.327 430.426C362.284 435.583 355.053 438.232 352.789 433.268C350.893 427.707 359.239 424.576 361.327 430.426Z" fill="#FEFDFE"/>
<path d="M99.5912 94.147C100.091 97.2167 97.8713 100.225 94.528 99.5936C85.621 97.5588 95.0633 84.9816 99.5912 94.147Z" fill="#FEFDFE"/>
<path d="M296.566 38.1645C297.83 32.9459 306.385 34.5598 305.183 39.8485C304.613 45.8389 295.25 44.0672 296.566 38.1645Z" fill="#FEFDFE"/>
<path d="M62.1919 357.664C60.5071 364.093 50.6702 360.304 54.3557 354.392C56.9531 350.638 62.7974 353.173 62.1919 357.664Z" fill="#FEFDFE"/>
<path d="M430.94 352.533C435.854 351.752 438.232 358.927 433.379 360.795C427.676 363.101 425.069 354.059 430.94 352.533Z" fill="#FEFDFE"/>
<path d="M74.0647 110.391C79.5491 107.005 84.0244 116.302 77.6625 118.048C73.3013 119.732 70.1335 113.048 74.0647 110.391Z" fill="#FEFDFE"/>
<path d="M109.902 77.8599C108.682 72.8168 115.571 70.3083 117.852 74.9919C119.914 80.1666 111.947 83.2364 109.902 77.8599Z" fill="#FEFDFE"/>
<path d="M245.626 248.959C241.3 249.74 238.633 243.574 242.511 241.32C247.917 237.926 251.997 247.284 245.626 248.959Z" fill="#FEFDFE"/>
<path d="M240.905 470.13C239.449 465.552 246.214 462.798 248.522 467.069C250.874 472.13 242.713 475.752 240.905 470.13Z" fill="#FEFDFE"/>
<path d="M433.248 136.571C432.537 136.413 432.168 136.808 431.493 136.782C427 136.308 426.351 130.081 430.677 128.66C435.52 127.537 438.013 134.457 433.248 136.571Z" fill="#FEFDFE"/>
<path d="M57.0413 128.923C61.8676 127.335 63.7279 135.431 58.8314 136.562C53.7506 137.755 51.9341 129.642 57.0413 128.923Z" fill="#FEFDFE"/>
<path d="M203.814 469.762C202.112 465.421 209.728 463.114 211.15 467.85C212.405 472.867 204.718 474.806 203.814 469.762Z" fill="#FEFDFE"/>
<path d="M130.655 61.2572C126.504 58.5471 130.251 52.2234 134.63 54.6353C138.939 57.4946 134.744 63.7657 130.655 61.2572Z" fill="#FEFDFE"/>
<path d="M353.815 55.6702C357.544 51.127 363.766 57.6085 359.203 61.1694C355.842 63.3534 351.419 59.1522 353.815 55.6702Z" fill="#FEFDFE"/>
<path d="M472.919 243.53C474.016 249.056 466.575 250.476 465.285 245.302C464.872 240.732 470.962 239.425 472.919 243.53Z" fill="#FEFDFE"/>
<path d="M281.411 465.201C285.562 464.614 287.615 469.85 284.044 472.253C279.024 474.481 276.181 466.929 281.411 465.201Z" fill="#FEFDFE"/>
<path d="M153.339 453.352C150.338 455.667 145.941 451.572 148.17 448.353C151.513 443.45 158.139 450.01 153.339 453.352Z" fill="#FEFDFE"/>
<path d="M23.9238 243.802C25.7314 248.056 18.1761 250.415 16.8598 245.863C15.5786 241.11 23.0814 239.048 23.9238 243.802Z" fill="#FEFDFE"/>
<path d="M454.079 338.833C453.035 343.376 445.865 342.061 447.015 337.105C448.358 332.86 454.658 334.579 454.079 338.833Z" fill="#FEFDFE"/>
<path d="M341.889 449.564C342.504 453.879 336.475 455.396 334.843 451.493C333.746 446.529 340.319 444.766 341.889 449.564Z" fill="#FEFDFE"/>
<path d="M40.254 334.869C44.352 336.088 42.2109 343.183 38.1831 341.341C33.6903 340.57 35.8928 333.579 40.254 334.869Z" fill="#FEFDFE"/>
<path d="M468.066 210.71C463.732 209.149 466.355 202.334 470.567 204.237C474.578 205.843 472.156 211.833 468.066 210.71Z" fill="#FEFDFE"/>
<path d="M447.015 152.297C446.278 144.474 458.159 149.114 452.377 154.209C450.455 155.508 447.901 154.56 447.015 152.297Z" fill="#FEFDFE"/>
<path d="M465.864 280.884C467.233 277.929 471.55 278.025 472.629 281.191C473.454 287.024 464.495 286.691 465.864 280.884Z" fill="#FEFDFE"/>
<path d="M241.502 19.7193C243.003 15.7987 249.075 17.1494 247.978 21.6751C246.495 25.543 240.774 23.7889 241.502 19.7193Z" fill="#FEFDFE"/>
<path d="M42.1762 152.903C39.8508 156.437 34.3839 153.718 36.2793 149.692C38.5608 146.018 43.9048 149.263 42.1762 152.903Z" fill="#FEFDFE"/>
<path d="M17.1496 208.202C16.3072 204.404 22.0725 202.474 23.6169 206.263C24.6173 210.579 18.7379 212.526 17.1496 208.202Z" fill="#FEFDFE"/>
<path d="M19.369 278.973C23.3968 277.78 25.3975 283.455 21.7295 285.139C17.7544 286.972 15.2096 280.578 19.369 278.973Z" fill="#FEFDFE"/>
<path d="M337.143 36.2434C341.285 35.112 343.214 41.1638 339.037 42.418C335.501 43.0495 333.44 37.7432 337.143 36.2434Z" fill="#FEFDFE"/>
<path d="M152.426 36.2427C152.917 36.5672 154.12 37.3829 154.111 37.8477C155.559 48.9339 141.027 36.5672 152.426 36.2427Z" fill="#FEFDFE"/>
<path d="M279.2 21.2627C278.551 17.658 283.447 16.3775 285.062 19.3156C286.194 23.3414 280.569 25.5165 279.2 21.2627Z" fill="#FEFDFE"/>
<path d="M205.866 18.0351C209.28 16.1406 212.246 21.0435 208.885 23.2975C205.498 24.9201 202.593 20.2629 205.866 18.0351Z" fill="#FEFDFE"/>
<path d="M167.309 467.999C168.441 465.403 171.959 465.535 172.881 468.306C173.557 472.867 166.089 472.788 167.309 467.999Z" fill="#FEFDFE"/>
<path d="M320.548 466.376C323.426 467.578 322.224 472.042 319.127 471.639C315.546 470.683 316.74 465.525 320.548 466.376Z" fill="#FEFDFE"/>
<path d="M471.752 320.546C470.015 323.432 466.101 322.002 466.469 318.827C467.873 315.547 472.621 316.81 471.752 320.546Z" fill="#FEFDFE"/>
<path d="M434.072 392.974C435.186 395.518 432.247 397.974 429.991 395.992C427.587 393.097 431.983 389.913 434.072 392.974Z" fill="#FEFDFE"/>
<path d="M471.471 168.804C472.919 172.014 468.04 174.198 466.75 170.743C466.075 167.796 469.786 166.313 471.471 168.804Z" fill="#FEFDFE"/>
<path d="M412.722 415.48C408.527 414.349 411.344 408.341 414.889 411.148C416.434 412.91 415.126 415.664 412.722 415.48Z" fill="#FEFDFE"/>
<path d="M77.2413 410.481C81.6639 412.226 76.8113 418.19 74.2841 413.989C73.3627 412.13 75.0036 409.972 77.2413 410.481Z" fill="#FEFDFE"/>
<path d="M392.25 432.662C391.381 430.452 393.855 428.102 396.014 429.943C398.41 432.618 394.057 435.6 392.25 432.662Z" fill="#FEFDFE"/>
<path d="M225.742 485.496C228.015 484.382 229.594 488.838 227.155 489.688C224.215 491.381 222.109 485.628 225.742 485.496Z" fill="#FEFDFE"/>
<path d="M430.957 93.0338C434.608 92.4461 435.126 97.2876 431.695 97.7612C429.343 97.27 428.597 94.174 430.957 93.0338Z" fill="#FEFDFE"/>
<path d="M413.126 74.0974C417.198 75.0271 414.908 80.921 411.433 78.2372C409.845 76.3339 411.319 74.6587 413.126 74.0974Z" fill="#FEFDFE"/>
<path d="M317.468 21.6576C316.599 19.4474 319.083 17.0969 321.233 18.9475C323.637 21.6313 319.258 24.5958 317.468 21.6576Z" fill="#FEFDFE"/>
<path d="M168.95 22.71C166.063 20.9208 168.932 16.5968 171.67 18.9474C173.53 20.9734 171.249 23.6309 168.95 22.71Z" fill="#FEFDFE"/>
<path d="M58.2253 396.351C57.339 397.07 56.5229 395.825 55.7156 395.123C54.531 388.414 64.4819 394.132 58.2253 396.351Z" fill="#FEFDFE"/>
<path d="M21.0282 167.76C23.652 168.769 23.0816 172.084 20.4754 172.47C17.3339 172.067 17.4567 167.164 21.0282 167.76Z" fill="#FEFDFE"/>
<path d="M18.3252 318.528C19.8345 315.195 24.6345 318.739 22.0897 321.221C20.1153 322.721 17.4915 320.861 18.3252 318.528Z" fill="#FEFDFE"/>
<path d="M95.6073 433.741C94.2822 434.496 93.5013 432.654 92.6852 431.785C93.6592 425.874 101.109 432.215 95.6073 433.741Z" fill="#FEFDFE"/>
<path d="M393.575 55.96C397.137 55.039 397.374 60.5207 393.882 60.0734C392.013 59.3104 391.662 56.8107 393.575 55.96Z" fill="#FEFDFE"/>
<path d="M76.9777 74.4927C77.5305 74.7997 78.0833 75.0101 78.3905 75.6592C79.8032 82.6144 69.7909 75.4838 76.9777 74.4927Z" fill="#FEFDFE"/>
<path d="M263.15 485.497C265.616 485.207 266.555 488.742 264.309 489.61C261.255 490.408 260.386 486.172 263.15 485.497Z" fill="#FEFDFE"/>
<path d="M373.717 451.132C373.015 448.273 376.551 446.975 377.806 449.729C378.253 452.141 375.042 453.343 373.717 451.132Z" fill="#FEFDFE"/>
<path d="M111.955 449.467C112.561 448.081 114.351 447.713 115.492 448.836C118.168 452.388 110.981 454.002 111.955 449.467Z" fill="#FEFDFE"/>
<path d="M489.996 262.949C490.031 263.633 489.812 264.466 489.452 264.957C483.318 267.983 486.451 257.169 489.996 262.949Z" fill="#FEFDFE"/>
<path d="M449.2 373.732C451.306 372.758 453.281 374.538 452.316 376.828C450.087 379.082 446.927 375.915 449.2 373.732Z" fill="#FEFDFE"/>
<path d="M486.608 224.234C488.705 223.331 490.601 225.129 489.732 227.181C487.749 229.804 484.239 226.55 486.608 224.234Z" fill="#FEFDFE"/>
<path d="M57.0317 93.6296C61.0595 92.5771 59.752 98.8482 56.6105 96.7081C55.6452 95.717 55.8822 94.4102 57.0317 93.6296Z" fill="#FEFDFE"/>
<path d="M226.944 3.5809C222.469 4.64215 224.742 -2.27794 227.637 0.791805C228.304 1.88815 227.866 2.85293 226.944 3.5809Z" fill="#FEFDFE"/>
<path d="M96.9411 58.731C96.1514 59.8975 94.9755 60.108 93.9049 59.266C91.5708 56.0472 97.9941 54.7228 96.9411 58.731Z" fill="#FEFDFE"/>
<path d="M38.6655 373.706C40.8768 373.364 41.8684 376.047 39.8413 377.214C37.5072 377.854 36.498 375.083 38.6655 373.706Z" fill="#FEFDFE"/>
<path d="M0.801215 227.778C-1.22583 226.287 0.985494 222.954 3.09152 224.743C4.50431 226.48 2.82827 228.251 0.801215 227.778Z" fill="#FEFDFE"/>
<path d="M188.088 485.795C189.238 485.62 190.054 486.164 190.563 487.129C190.773 491.549 184.297 488.47 188.088 485.795Z" fill="#FEFDFE"/>
<path d="M261.816 2.62506C261.193 0.370989 264.396 -1.09372 265.335 1.42347C265.783 3.31795 262.791 4.67741 261.816 2.62506Z" fill="#FEFDFE"/>
<path d="M449.516 115.679C447.62 114.329 449.446 111.04 451.587 112.469C453.403 113.96 451.666 116.267 449.516 115.679Z" fill="#FEFDFE"/>
<path d="M3.60033 264.089C0.230685 268.316 -1.84901 259.993 2.87199 261.94C3.574 262.361 3.63543 263.352 3.60033 264.089Z" fill="#FEFDFE"/>
<path d="M113.57 37.7164C116.132 37.4533 116.027 41.4264 113.21 40.637C112.403 39.8915 112.122 38.1637 113.57 37.7164Z" fill="#FEFDFE"/>
<path d="M37.7623 113.18C38.7451 111.829 40.8686 112.575 40.6931 114.329C39.9209 116.399 37.1217 115.25 37.7623 113.18Z" fill="#FEFDFE"/>
<path d="M486.468 301.47C485.976 299.33 488.258 298.461 489.39 300.4C489.732 302.136 487.442 302.926 486.468 301.47Z" fill="#FEFDFE"/>
<path d="M489.407 188.257C489.811 189.871 487.451 191.055 486.67 189.327C486.626 189.371 486.582 189.406 486.547 189.45C485.783 187.345 488.328 186.266 489.407 188.257Z" fill="#FEFDFE"/>
<path d="M468.277 131.274C470.48 130.616 471.638 133.44 469.462 134.212C467.97 134.238 467.066 132.51 468.277 131.274Z" fill="#FEFDFE"/>
<path d="M133.007 470.499C130.444 470.762 130.55 466.789 133.358 467.578C134.051 468.306 134.516 470.043 133.007 470.499Z" fill="#FEFDFE"/>
<path d="M358.395 469.841C357.246 470.999 355.403 470.376 355.473 468.622C356.254 466.552 359.053 467.657 358.395 469.841Z" fill="#FEFDFE"/>
<path d="M190.274 2.26542C189.493 4.25637 186.773 3.2916 187.352 1.08137C188.37 -0.321938 190.555 0.607758 190.274 2.26542Z" fill="#FEFDFE"/>
<path d="M374.296 38.4617C375.147 37.3742 376.463 37.5671 377.218 38.8389C377.551 41.5139 373.497 41.1017 374.296 38.4617Z" fill="#FEFDFE"/>
<path d="M470.559 356.225C471.032 358.462 468.751 359.067 467.628 357.164C467.382 355.427 469.655 354.717 470.559 356.225Z" fill="#FEFDFE"/>
<path d="M300.542 486.085C303.104 485.822 302.999 489.795 300.191 489.005C299.498 488.277 299.033 486.541 300.542 486.085Z" fill="#FEFDFE"/>
<path d="M301.761 1.03739C302.849 2.37054 300.699 4.0019 299.804 2.15127C299.558 1.0637 300.875 0.283111 301.761 1.03739Z" fill="#FEFDFE"/>
<path d="M131.805 21.4646C130.269 19.535 134.121 18.4738 133.718 21.1137C133.191 21.7715 132.436 21.9031 131.805 21.4646Z" fill="#FEFDFE"/>
<path d="M356.175 19.7806C356.93 18.9298 358.334 19.8858 358.071 21.14C357.079 22.4556 354.991 21.2979 356.175 19.7806Z" fill="#FEFDFE"/>
<path d="M0.660949 189.038C0.397696 187.845 1.69641 187.152 2.63534 187.827C3.69713 189.187 1.65253 190.809 0.660949 189.038Z" fill="#FEFDFE"/>
<path d="M20.8262 355.752C22.8708 357.182 20.1067 359.12 19.1853 357.111C19.4134 356.182 19.8522 355.55 20.8262 355.752Z" fill="#FEFDFE"/>
<path d="M2.24071 301.899C1.19647 302.32 -0.12857 300.435 1.24912 299.838C2.60049 298.979 3.60963 301.057 2.24071 301.899Z" fill="#FEFDFE"/>
<path d="M21.5634 132.308C21.8355 133.475 20.5806 134.308 19.6154 133.536C18.4658 132.212 20.6596 130.642 21.5634 132.308Z" fill="#FEFDFE"/>
</g>
</svg>
